<svg  xmlns="http://www.w3.org/2000/svg" xmlns:xlink="http://www.w3.org/1999/xlink">
  <symbol id="vk"  viewBox="0 0 126 72">
    <path   d="M124.523,64.503c-0.152-0.328-0.293-0.597-0.426-0.816
			c-2.172-3.91-6.324-8.711-12.449-14.401l-0.129-0.134l-0.066-0.063l-0.066-0.066h-0.063c-2.781-2.651-4.543-4.434-5.281-5.344
			c-1.348-1.738-1.652-3.5-0.914-5.281c0.523-1.348,2.477-4.19,5.867-8.538c1.781-2.302,3.195-4.149,4.234-5.539
			c7.52-9.996,10.777-16.383,9.777-19.164l-0.387-0.649c-0.262-0.39-0.934-0.75-2.02-1.074c-1.086-0.327-2.477-0.383-4.172-0.163
			L99.656,3.398c-0.301-0.105-0.738-0.099-1.301,0.034c-0.566,0.13-0.852,0.195-0.852,0.195L97.18,3.793l-0.258,0.195
			c-0.219,0.129-0.457,0.354-0.719,0.683c-0.258,0.325-0.477,0.707-0.648,1.142c-2.047,5.258-4.367,10.145-6.977,14.663
			c-1.609,2.695-3.086,5.031-4.434,7.009c-1.348,1.976-2.477,3.434-3.387,4.366c-0.914,0.935-1.738,1.685-2.477,2.246
			c-0.742,0.567-1.305,0.806-1.695,0.72c-0.391-0.091-0.762-0.177-1.109-0.263c-0.609-0.39-1.098-0.922-1.465-1.597
			c-0.371-0.672-0.621-1.52-0.75-2.543c-0.129-1.021-0.207-1.899-0.23-2.637c-0.02-0.738-0.008-1.785,0.035-3.129
			c0.043-1.349,0.066-2.263,0.066-2.738c0-1.653,0.031-3.446,0.094-5.379c0.066-1.935,0.121-3.465,0.164-4.594
			c0.043-1.13,0.066-2.324,0.066-3.587c0-1.258-0.078-2.245-0.23-2.965c-0.148-0.715-0.379-1.41-0.684-2.086
			c-0.305-0.672-0.75-1.194-1.336-1.562c-0.586-0.371-1.313-0.664-2.18-0.883c-2.305-0.521-5.238-0.802-8.8-0.849
			c-8.082-0.086-13.274,0.438-15.579,1.567c-0.914,0.476-1.738,1.129-2.476,1.953c-0.781,0.957-0.891,1.479-0.328,1.565
			c2.609,0.392,4.453,1.325,5.543,2.802l0.39,0.784c0.305,0.563,0.61,1.563,0.911,2.996c0.304,1.435,0.5,3.021,0.585,4.758
			c0.219,3.173,0.219,5.888,0,8.149c-0.214,2.257-0.421,4.019-0.617,5.277c-0.195,1.262-0.488,2.28-0.879,3.065
			c-0.39,0.782-0.652,1.258-0.785,1.435c-0.129,0.172-0.238,0.28-0.324,0.323c-0.566,0.22-1.152,0.328-1.762,0.328
			c-0.605,0-1.344-0.304-2.215-0.914c-0.867-0.608-1.769-1.444-2.703-2.512c-0.933-1.062-1.988-2.55-3.164-4.464
			c-1.172-1.911-2.386-4.168-3.648-6.778l-1.043-1.89c-0.653-1.215-1.543-2.985-2.672-5.313c-1.129-2.323-2.129-4.569-2.996-6.745
			c-0.348-0.91-0.871-1.605-1.567-2.087l-0.324-0.194c-0.219-0.172-0.566-0.356-1.043-0.556c-0.48-0.194-0.976-0.336-1.5-0.422
			L4.172,3.265c-1.824,0-3.063,0.414-3.715,1.238L0.195,4.895C0.066,5.113,0,5.46,0,5.938c0,0.48,0.129,1.065,0.391,1.762
			C3,13.824,5.832,19.734,8.898,25.425c3.063,5.696,5.723,10.278,7.981,13.754c2.262,3.478,4.562,6.758,6.91,9.84
			c2.348,3.086,3.902,5.063,4.66,5.935c0.762,0.871,1.36,1.519,1.793,1.953l1.629,1.565c1.043,1.043,2.574,2.293,4.598,3.746
			c2.02,1.457,4.258,2.891,6.711,4.305c2.457,1.41,5.312,2.563,8.574,3.453c3.258,0.892,6.43,1.25,9.516,1.074h7.496
			c1.52-0.129,2.672-0.609,3.453-1.433l0.258-0.324c0.176-0.262,0.34-0.665,0.488-1.208c0.152-0.542,0.23-1.14,0.23-1.792
			c-0.043-1.868,0.098-3.551,0.422-5.051c0.324-1.496,0.695-2.625,1.109-3.388c0.414-0.762,0.879-1.401,1.402-1.922
			c0.52-0.522,0.891-0.836,1.109-0.944c0.215-0.11,0.387-0.185,0.52-0.231c1.043-0.347,2.27-0.007,3.684,1.012
			c1.41,1.024,2.734,2.281,3.977,3.781c1.238,1.5,2.727,3.184,4.461,5.051c1.742,1.867,3.262,3.258,4.563,4.172l1.305,0.781
			c0.871,0.524,2,1,3.391,1.435c1.391,0.437,2.605,0.547,3.648,0.327l16.688-0.262c1.648,0,2.934-0.272,3.844-0.815
			c0.914-0.544,1.453-1.142,1.629-1.789c0.176-0.653,0.184-1.392,0.035-2.22C124.824,65.406,124.672,64.828,124.523,64.503
			L124.523,64.503z M124.523,64.503"/>

  </symbol>

  <symbol id="twitter" viewBox="0 0 37.453 31.21">
    <path  d="M36.421,0.577c-1.486,0.902-3.129,1.558-4.884,1.909C30.14,0.956,28.142,0,25.93,0
    c-4.24,0-7.682,3.528-7.682,7.879c0,0.618,0.066,1.217,0.198,1.794C12.061,9.344,6.399,6.211,2.607,1.438
    c-0.662,1.168-1.04,2.522-1.04,3.966c0,2.731,1.356,5.144,3.418,6.557c-1.257-0.038-2.444-0.396-3.481-0.981v0.096
    c0,3.819,2.648,7.004,6.167,7.725c-0.645,0.186-1.324,0.277-2.025,0.277c-0.495,0-0.979-0.047-1.447-0.139
    c0.979,3.129,3.815,5.408,7.179,5.469c-2.63,2.115-5.944,3.375-9.544,3.375c-0.619,0-1.232-0.037-1.833-0.109
    c3.4,2.232,7.441,3.537,11.778,3.537c14.136,0,21.863-12.004,21.863-22.417c0-0.343-0.006-0.685-0.021-1.021
    c1.502-1.112,2.807-2.498,3.832-4.078c-1.376,0.626-2.857,1.05-4.412,1.24C34.629,3.961,35.847,2.417,36.421,0.577"/>
  </symbol>
  <symbol id="fb" viewBox="0 0 36.711 36.711">
    <path  d="M36.711,34.686c0,1.119-0.907,2.025-2.026,2.025H25.33V22.495h4.771l0.715-5.541H25.33v-3.537
    c0-1.604,0.445-2.696,2.746-2.696l2.934-0.001V5.764c-0.508-0.067-2.249-0.219-4.275-0.219c-4.23,0-7.127,2.582-7.127,7.323v4.086
    h-4.784v5.541h4.784v14.216H2.026C0.907,36.711,0,35.805,0,34.686V2.026C0,0.907,0.907,0,2.026,0h32.659
    c1.119,0,2.026,0.907,2.026,2.026V34.686z"/>
  </symbol>
  <symbol id="inst" viewBox="0 0 36.663 36.664">
    <path  d="M32.305,0H4.357C1.95,0,0,1.946,0,4.349v27.967c0,2.4,1.95,4.348,4.357,4.348h27.947
	c2.407,0,4.358-1.947,4.358-4.348V4.349C36.663,1.946,34.712,0,32.305,0 M26.352,5.729c0-0.632,0.513-1.146,1.146-1.146h3.438
	c0.632,0,1.145,0.514,1.145,1.146v3.438c0,0.633-0.513,1.146-1.145,1.146h-3.438c-0.633,0-1.146-0.513-1.146-1.146V5.729z
	 M18.374,11.341c3.894,0,7.051,3.149,7.051,7.033c0,3.885-3.157,7.034-7.051,7.034s-7.051-3.148-7.051-7.034
	C11.323,14.49,14.48,11.341,18.374,11.341 M33.226,32.08c0,0.633-0.513,1.146-1.146,1.146H4.583c-0.633,0-1.146-0.514-1.146-1.146
	V14.895H8.02c-0.597,0.858-0.798,2.462-0.798,3.479c0,6.135,5.003,11.127,11.152,11.127s11.153-4.992,11.153-11.127
	c0-1.018-0.145-2.596-0.885-3.479h4.583V32.08z"/>
  </symbol>
	<symbol id="phone" viewBox="0 0 11 11">
	  	<path fill="#E45028" d="M10.758,9.774c-0.164,0.383-0.602,0.633-0.953,0.828C9.344,10.852,8.875,11,8.352,11
		c-0.727,0-1.383-0.297-2.047-0.539c-0.477-0.172-0.938-0.383-1.367-0.648c-1.328-0.82-2.93-2.422-3.75-3.75
		C0.922,5.633,0.711,5.172,0.54,4.695C0.297,4.031,0,3.375,0,2.648c0-0.523,0.148-0.992,0.398-1.453
		c0.196-0.352,0.446-0.789,0.829-0.953C1.485,0.125,2.032,0,2.313,0c0.055,0,0.109,0,0.164,0.023
		c0.164,0.055,0.336,0.438,0.414,0.594c0.25,0.445,0.492,0.898,0.75,1.336C3.766,2.156,4,2.406,4,2.648
		C4,3.125,2.586,3.82,2.586,4.242c0,0.211,0.195,0.484,0.305,0.672C3.68,6.336,4.665,7.321,6.086,8.11
		c0.188,0.109,0.461,0.305,0.672,0.305C7.18,8.415,7.875,7,8.352,7C8.594,7,8.844,7.235,9.047,7.36
		c0.438,0.258,0.891,0.5,1.336,0.75c0.156,0.078,0.539,0.25,0.594,0.414C11,8.579,11,8.633,11,8.688
		C11,8.969,10.875,9.516,10.758,9.774z"/>
	</symbol>
	<symbol id='logo' viewBox="0 0 98.265 74.317">
    <path fill="#E55028" d="M70.098,32.877c-0.951,1.28-2.524,2.065-4.392,2.152c-2.689,0.125-3.996-2.211-4.227-7.18
	c-0.195-4.222,0.7-12.311,0.555-15.448L61.93,10.16c-0.896,0.041-5.063,17.529-7.315,20.628c-0.664,1.004-1.783,1.918-3.164,1.981
	c-3.176,0.147-5.363-3.42-5.619-8.948c-0.168-3.625,0.494-10.318,0.141-17.937c-0.038-0.824-0.203-1.152-0.352-1.146
	c-2.989,0.139-9.656,20.25-9.976,30.298c-0.044,1.463,0.219,3.921,0.578,5.215c-3.605-0.244-7.463-0.29-7.631-3.914
	c-0.154-3.324,1.577-10.404,3.644-16.679c1.444-4.371,7.037-19.38,12.939-19.653c6.537-0.304,5.774,11.524,6.294,22.693
	c0.083,1.791,0.144,3.101,0.375,4.063C57.981,8.958,59.122,3.7,62.783,3.531c2.093-0.098,3.717,2.635,3.887,6.296
	c0.099,2.129,0.073,6.435,0.195,9.05C67.411,30.645,68.626,30.214,70.098,32.877z"/>
<path fill="#E55028" d="M90.098,15.69c-0.048,2.364-6.179,11.961-12.003,11.842c-3.201-0.066-4.799-2.139-4.742-4.866
	c0.049-2.365,1.189-4.745,2.058-6.295c-5.588-0.951-6.262-3.551-6.231-5.006c0.059-2.911,2.857-4.384,4.64-4.348
	c1.419,0.029,1.832,1.202,1.816,1.968c-0.019,0.872-0.402,1.921-1.013,3.181c2.754,0.678,7.269,0.732,7.225,2.882
	c-0.04,1.964-3.348,5.211-3.402,7.868c-0.02,0.981,0.404,1.536,1.17,1.552c3.057,0.063,6.985-6.848,8.766-10.234
	C89.649,14.479,90.112,14.964,90.098,15.69z"/>
<path fill="#F9B43B" d="M94.032,41.441c-0.035,1.723-4.502,8.716-8.745,8.629c-2.334-0.048-3.497-1.558-3.456-3.546
	c0.035-1.725,0.867-3.457,1.5-4.587c-4.072-0.693-4.563-2.588-4.541-3.647c0.043-2.121,2.082-3.194,3.381-3.168
	c1.033,0.021,1.334,0.876,1.322,1.434c-0.013,0.636-0.293,1.399-0.736,2.318c2.006,0.494,5.295,0.533,5.263,2.099
	c-0.029,1.433-2.438,3.797-2.478,5.733c-0.016,0.716,0.295,1.12,0.852,1.132c2.228,0.046,5.09-4.99,6.387-7.458
	C93.706,40.559,94.044,40.912,94.032,41.441z"/>
<path fill="#F9B43B" d="M94.715,58.909c-0.028,1.357-3.547,6.866-6.89,6.798c-1.838-0.038-2.756-1.228-2.723-2.794
	c0.027-1.356,0.683-2.724,1.181-3.613c-3.207-0.545-3.595-2.038-3.577-2.873c0.035-1.671,1.641-2.516,2.664-2.495
	c0.814,0.017,1.052,0.689,1.043,1.13c-0.011,0.499-0.231,1.103-0.582,1.825c1.58,0.39,4.173,0.42,4.147,1.655
	c-0.023,1.127-1.923,2.989-1.954,4.517c-0.011,0.562,0.232,0.881,0.673,0.89c1.754,0.036,4.01-3.932,5.031-5.876
	C94.458,58.215,94.724,58.492,94.715,58.909z"/>
<path fill="#8BC334" d="M88.913,25.685c0.041-1.983,2.199-3.441,4.765-3.389c2.612,0.053,4.619,1.308,4.587,2.902
	c-0.053,2.565-2.671,5.125-5.283,5.072C90.368,30.217,88.882,27.185,88.913,25.685z"/>
<path fill="#F9B43B" d="M50.903,68.48c0.025-1.241,1.375-2.152,2.979-2.119c1.633,0.033,2.889,0.817,2.867,1.814
	c-0.032,1.604-1.669,3.204-3.303,3.171C51.812,71.313,50.884,69.418,50.903,68.48z"/>
<path fill="#E55028" d="M30.218,46.802c0.025-1.241,1.375-2.152,2.979-2.119c1.633,0.033,2.888,0.817,2.868,1.815
	c-0.033,1.603-1.669,3.203-3.303,3.17C31.127,49.635,30.198,47.739,30.218,46.802z"/>
<path fill="#F9B43B" d="M60.528,55.991c-0.062,2.992-2.562,6.684-8.605,6.56c-3.441-0.07-5.892-1.707-5.856-3.444
	c0.011-0.508,0.35-0.98,0.894-1.297c0.917,0.556,2.042,1.148,4.197,1.192c3.381,0.069,4.955-2.262,5.003-4.596
	c0.046-2.273-1.325-3.92-3.36-4.021c-1.734-0.036-3.321-0.037-4.502,0.626c-0.981-0.349-1.446-1.047-1.432-1.705
	c0.026-1.257,1.053-1.744,2.37-1.718c0.568,0.012,1.166,0.113,1.759,0.275c2.111-0.735,5.241-3.005,5.307-6.237
	c0.057-2.751-2.271-4.477-6.131-4.556c-0.809-0.017-1.648,0.057-2.519,0.158c0.202,0.334,0.315,0.666,0.309,0.994
	c-3.89,7.224-4.585,22.177-1.9,26.931c-0.398,0.441-2.318,0.642-3.185,0.624c-2.154-0.044-3.536-1.33-3.762-3.43
	c-0.854-6.542,1.331-16.736,3.201-21.785c0.256-0.804,0.539-1.456,0.85-2.049c-1.419,0.599-2.662,1.383-3.578,2.23
	c-0.982-0.288-1.657-0.932-1.645-1.56c0.004-0.209,0.068-0.388,0.191-0.596c0.683-1.152,5.832-4.1,12.624-3.961
	c8.826,0.182,11.26,4.183,11.205,6.815c-0.078,3.799-4.174,6.471-7.244,7.335C58.62,49.757,60.591,52.97,60.528,55.991z"/>
<path fill="#F9B43B" d="M84.269,41.924c-0.025,1.235-4.68,9.245-9.137,9.153c-1.82-0.037-2.973-1.038-3.353-3.129
	c-1.301,1.568-3.056,3.028-5.007,2.988c-2.277-0.047-3.387-1.501-3.33-4.234c0.022-1.104,0.296-3.312,0.342-5.557
	c0.03-1.461-0.02-2.214-0.226-3.291c0.946-0.143,1.86-0.287,2.771-0.269c1.593,0.032,2.261,0.827,2.224,2.648
	c-0.021,1.074-0.368,3.67-0.404,5.46c-0.025,1.236,0.191,1.727,0.549,1.734c0.488,0.01,1.775-0.809,3.018-2.703
	c0.126-1.397,0.319-2.857,0.345-4.094c0.024-1.171-0.056-2.052-0.241-2.574c0.557-0.088,1.207-0.172,1.794-0.159
	c2.082,0.042,3.003,1.134,2.95,3.704c-0.018,0.846-0.453,3.083-0.485,4.645c-0.03,1.496,0.149,2.216,0.735,2.228
	c1.105,0.022,4.277-3.882,5.82-7.722C83.419,40.539,84.29,40.915,84.269,41.924z"/>
<path fill="#F9B43B" d="M77.202,60.895c-2.256,0.077-4.504,0.913-6.465,2.147l-0.014,0.711c-0.08,3.894-1.665,10.649-5.854,10.563
	c-1.74-0.035-2.698-1.084-2.661-2.897c0.058-2.818,2.301-5.81,5.189-8.077c0.003-0.172,0.007-0.319-0.016-0.444
	c-0.851,0.867-1.79,1.288-2.795,1.268c-1.666-0.034-2.599-1.181-2.559-3.115c0.06-2.941,3.23-5.743,6.269-5.681
	c1.004,0.021,1.999,0.435,1.982,1.243c-0.012,0.612-0.657,0.99-1.986,1.305c-0.164-0.418-0.381-0.595-0.601-0.599
	c-1.054-0.021-2.375,2.279-2.407,3.847c-0.014,0.687,0.176,0.959,0.471,0.965c0.637,0.014,1.696-1.46,1.355-2.789
	c1.193-0.761,1.511-0.754,1.976-0.745c1.03,0.021,1.481,0.717,1.613,2.632c1.906-0.965,3.879-1.538,5.545-1.504
	C76.858,59.736,77.39,60.114,77.202,60.895z M67.22,66.058c-1.606,1.877-2.631,4.014-2.671,5.999
	c-0.011,0.515,0.104,0.858,0.399,0.864C66.074,72.944,66.914,69.04,67.22,66.058z"/>
<path fill="#F9B43B" d="M87.722,60.522c-0.023,1.176-4.121,7.342-8.676,7.248c-3.455-0.07-5.904-2.522-5.836-5.879
	c0.066-3.234,2.178-5.763,4.822-5.709c1.887,0.039,2.989,1.262,2.948,3.271c-0.044,2.156-1.718,3.715-3.185,4.688
	c0.475,0.794,1.151,1.25,1.984,1.267c1.886,0.039,4.408-2.263,6.316-5.679C87.083,59.431,87.739,59.713,87.722,60.522z
	 M77.056,60.843c-0.01,0.467,0.005,0.907,0.07,1.301c0.775-0.794,1.383-1.712,1.406-2.839c0.011-0.539-0.177-0.91-0.398-0.915
	C77.669,58.38,77.081,59.594,77.056,60.843z"/>
<polygon fill-rule="evenodd" clip-rule="evenodd" fill="#E55028" points="0.004,29.345 0.002,29.345 0,29.35 "/>
<g>
	<path fill-rule="evenodd" clip-rule="evenodd" fill="#E55028" d="M16.591,51.478c0.337-0.337,0.674-0.673,1.104-1.103
		c0.116,0.836-0.023,1.49-0.405,2.104c-0.055,0.118-0.111,0.234-0.164,0.351c-0.107,0.34-0.333,0.576-0.631,0.754
		c-0.067,0.046-0.136,0.094-0.205,0.141c-0.119,0.075-0.241,0.148-0.361,0.222c-0.079,0.021-0.158,0.038-0.237,0.057
		c0.008,0.119,0.015,0.239,0.023,0.359c1.227,0.24,2.442,0.3,3.628-0.206c1.134-0.483,1.828-1.463,2.63-2.317
		c0.106-0.254,0.296-0.423,0.524-0.562c0.157-0.273,0.365-0.497,0.646-0.646c0.177-0.271,0.427-0.451,0.722-0.569
		c0.478-0.575,1.177-0.62,1.832-0.776c-0.083-0.703-0.898-0.643-1.186-1.135c-1.96-1.289-3.993-2.394-6.42-2.469
		c-0.127,0.037-0.252,0.076-0.38,0.114c-0.26,0.09-0.516,0.183-0.776,0.264c-2.304,0.732-4.358,2.038-6.617,2.875
		c-1.697,0.631-3.445,0.862-5.247,0.731c-0.536-0.04-1.04-0.441-1.604-0.149c0.951,1.728,2.491,2.779,4.218,3.572
		c1.992,0.916,4.024,0.583,6.045,0.054c0.499-0.235,0.998-0.472,1.496-0.706C15.681,52.117,16.136,51.796,16.591,51.478z"/>
	<path fill-rule="evenodd" clip-rule="evenodd" fill="#F9B43B" d="M32.426,58.221c-1.174-0.394-2.376-0.705-3.583-0.242
		c-1.696,0.652-3.396,1.288-5.128,1.84c-1.39,0.442-2.796,0.794-4.283,0.647c-0.32-0.032-0.71-0.216-1.011,0.236
		c2.812,1.149,5.504,2.677,8.71,1.845c0.903-0.364,1.808-0.727,2.711-1.091c0.066-0.042,0.133-0.082,0.199-0.122
		c1.264-0.631,2.45-1.41,3.77-1.928C33.724,58.573,32.918,58.577,32.426,58.221z"/>
	<path fill-rule="evenodd" clip-rule="evenodd" fill="#F9B43B" d="M22.016,35.08c-0.822-0.457-1.882-0.436-2.76-0.384
		c-1.202,0.067-2.362,0.073-3.533-0.165c-0.092-0.045-0.183-0.089-0.273-0.132c0.328,0.908,0.994,1.563,1.633,2.256
		c0.411,0.444,0.821,0.54,1.39,0.581c1.492,0.108,2.934-0.383,4.417-0.295c0.226,0.058,0.453,0.114,0.678,0.173
		C23.249,36.28,22.77,35.498,22.016,35.08z"/>
	<path fill-rule="evenodd" clip-rule="evenodd" fill="#E55028" d="M38.82,70.154c-1.171-0.494-2.296-0.518-3.313,0.302
		c-0.573,0.464-1.194,0.786-1.997,1.032c1.17,0.57,2.313,0.802,3.478,0.628c0.804-0.116,1.623-0.376,2.042-1.234
		C39.193,70.544,39.27,70.343,38.82,70.154z"/>
	</symbol>
</svg>