<svg  xmlns="http://www.w3.org/2000/svg" xmlns:xlink="http://www.w3.org/2000/xlink">
  <symbol id="vk"  viewBox="0 0 126 72">
    <path   d="M124.523,64.503c-0.152-0.328-0.293-0.597-0.426-0.816
			c-2.172-3.91-6.324-8.711-12.449-14.401l-0.129-0.134l-0.066-0.063l-0.066-0.066h-0.063c-2.781-2.651-4.543-4.434-5.281-5.344
			c-1.348-1.738-1.652-3.5-0.914-5.281c0.523-1.348,2.477-4.19,5.867-8.538c1.781-2.302,3.195-4.149,4.234-5.539
			c7.52-9.996,10.777-16.383,9.777-19.164l-0.387-0.649c-0.262-0.39-0.934-0.75-2.02-1.074c-1.086-0.327-2.477-0.383-4.172-0.163
			L99.656,3.398c-0.301-0.105-0.738-0.099-1.301,0.034c-0.566,0.13-0.852,0.195-0.852,0.195L97.18,3.793l-0.258,0.195
			c-0.219,0.129-0.457,0.354-0.719,0.683c-0.258,0.325-0.477,0.707-0.648,1.142c-2.047,5.258-4.367,10.145-6.977,14.663
			c-1.609,2.695-3.086,5.031-4.434,7.009c-1.348,1.976-2.477,3.434-3.387,4.366c-0.914,0.935-1.738,1.685-2.477,2.246
			c-0.742,0.567-1.305,0.806-1.695,0.72c-0.391-0.091-0.762-0.177-1.109-0.263c-0.609-0.39-1.098-0.922-1.465-1.597
			c-0.371-0.672-0.621-1.52-0.75-2.543c-0.129-1.021-0.207-1.899-0.23-2.637c-0.02-0.738-0.008-1.785,0.035-3.129
			c0.043-1.349,0.066-2.263,0.066-2.738c0-1.653,0.031-3.446,0.094-5.379c0.066-1.935,0.121-3.465,0.164-4.594
			c0.043-1.13,0.066-2.324,0.066-3.587c0-1.258-0.078-2.245-0.23-2.965c-0.148-0.715-0.379-1.41-0.684-2.086
			c-0.305-0.672-0.75-1.194-1.336-1.562c-0.586-0.371-1.313-0.664-2.18-0.883c-2.305-0.521-5.238-0.802-8.8-0.849
			c-8.082-0.086-13.274,0.438-15.579,1.567c-0.914,0.476-1.738,1.129-2.476,1.953c-0.781,0.957-0.891,1.479-0.328,1.565
			c2.609,0.392,4.453,1.325,5.543,2.802l0.39,0.784c0.305,0.563,0.61,1.563,0.911,2.996c0.304,1.435,0.5,3.021,0.585,4.758
			c0.219,3.173,0.219,5.888,0,8.149c-0.214,2.257-0.421,4.019-0.617,5.277c-0.195,1.262-0.488,2.28-0.879,3.065
			c-0.39,0.782-0.652,1.258-0.785,1.435c-0.129,0.172-0.238,0.28-0.324,0.323c-0.566,0.22-1.152,0.328-1.762,0.328
			c-0.605,0-1.344-0.304-2.215-0.914c-0.867-0.608-1.769-1.444-2.703-2.512c-0.933-1.062-1.988-2.55-3.164-4.464
			c-1.172-1.911-2.386-4.168-3.648-6.778l-1.043-1.89c-0.653-1.215-1.543-2.985-2.672-5.313c-1.129-2.323-2.129-4.569-2.996-6.745
			c-0.348-0.91-0.871-1.605-1.567-2.087l-0.324-0.194c-0.219-0.172-0.566-0.356-1.043-0.556c-0.48-0.194-0.976-0.336-1.5-0.422
			L4.172,3.265c-1.824,0-3.063,0.414-3.715,1.238L0.195,4.895C0.066,5.113,0,5.46,0,5.938c0,0.48,0.129,1.065,0.391,1.762
			C3,13.824,5.832,19.734,8.898,25.425c3.063,5.696,5.723,10.278,7.981,13.754c2.262,3.478,4.562,6.758,6.91,9.84
			c2.348,3.086,3.902,5.063,4.66,5.935c0.762,0.871,1.36,1.519,1.793,1.953l1.629,1.565c1.043,1.043,2.574,2.293,4.598,3.746
			c2.02,1.457,4.258,2.891,6.711,4.305c2.457,1.41,5.312,2.563,8.574,3.453c3.258,0.892,6.43,1.25,9.516,1.074h7.496
			c1.52-0.129,2.672-0.609,3.453-1.433l0.258-0.324c0.176-0.262,0.34-0.665,0.488-1.208c0.152-0.542,0.23-1.14,0.23-1.792
			c-0.043-1.868,0.098-3.551,0.422-5.051c0.324-1.496,0.695-2.625,1.109-3.388c0.414-0.762,0.879-1.401,1.402-1.922
			c0.52-0.522,0.891-0.836,1.109-0.944c0.215-0.11,0.387-0.185,0.52-0.231c1.043-0.347,2.27-0.007,3.684,1.012
			c1.41,1.024,2.734,2.281,3.977,3.781c1.238,1.5,2.727,3.184,4.461,5.051c1.742,1.867,3.262,3.258,4.563,4.172l1.305,0.781
			c0.871,0.524,2,1,3.391,1.435c1.391,0.437,2.605,0.547,3.648,0.327l16.688-0.262c1.648,0,2.934-0.272,3.844-0.815
			c0.914-0.544,1.453-1.142,1.629-1.789c0.176-0.653,0.184-1.392,0.035-2.22C124.824,65.406,124.672,64.828,124.523,64.503
			L124.523,64.503z M124.523,64.503"/>
  </symbol>

 

  <symbol id="twitter" viewBox="0 0 37.453 31.21">
    <path  d="M36.421,0.577c-1.486,0.902-3.129,1.558-4.884,1.909C30.14,0.956,28.142,0,25.93,0
    c-4.24,0-7.682,3.528-7.682,7.879c0,0.618,0.066,1.217,0.198,1.794C12.061,9.344,6.399,6.211,2.607,1.438
    c-0.662,1.168-1.04,2.522-1.04,3.966c0,2.731,1.356,5.144,3.418,6.557c-1.257-0.038-2.444-0.396-3.481-0.981v0.096
    c0,3.819,2.648,7.004,6.167,7.725c-0.645,0.186-1.324,0.277-2.025,0.277c-0.495,0-0.979-0.047-1.447-0.139
    c0.979,3.129,3.815,5.408,7.179,5.469c-2.63,2.115-5.944,3.375-9.544,3.375c-0.619,0-1.232-0.037-1.833-0.109
    c3.4,2.232,7.441,3.537,11.778,3.537c14.136,0,21.863-12.004,21.863-22.417c0-0.343-0.006-0.685-0.021-1.021
    c1.502-1.112,2.807-2.498,3.832-4.078c-1.376,0.626-2.857,1.05-4.412,1.24C34.629,3.961,35.847,2.417,36.421,0.577"/>
  </symbol>
  <symbol id="fb" viewBox="0 0 36.711 36.711">
    <path  d="M36.711,34.686c0,1.119-0.907,2.025-2.026,2.025H25.33V22.495h4.771l0.715-5.541H25.33v-3.537
    c0-1.604,0.445-2.696,2.746-2.696l2.934-0.001V5.764c-0.508-0.067-2.249-0.219-4.275-0.219c-4.23,0-7.127,2.582-7.127,7.323v4.086
    h-4.784v5.541h4.784v14.216H2.026C0.907,36.711,0,35.805,0,34.686V2.026C0,0.907,0.907,0,2.026,0h32.659
    c1.119,0,2.026,0.907,2.026,2.026V34.686z"/>
  </symbol>
  <symbol id="inst" viewBox="0 0 36.663 36.664">
    <path  d="M32.305,0H4.357C1.95,0,0,1.946,0,4.349v27.967c0,2.4,1.95,4.348,4.357,4.348h27.947
	c2.407,0,4.358-1.947,4.358-4.348V4.349C36.663,1.946,34.712,0,32.305,0 M26.352,5.729c0-0.632,0.513-1.146,1.146-1.146h3.438
	c0.632,0,1.145,0.514,1.145,1.146v3.438c0,0.633-0.513,1.146-1.145,1.146h-3.438c-0.633,0-1.146-0.513-1.146-1.146V5.729z
	 M18.374,11.341c3.894,0,7.051,3.149,7.051,7.033c0,3.885-3.157,7.034-7.051,7.034s-7.051-3.148-7.051-7.034
	C11.323,14.49,14.48,11.341,18.374,11.341 M33.226,32.08c0,0.633-0.513,1.146-1.146,1.146H4.583c-0.633,0-1.146-0.514-1.146-1.146
	V14.895H8.02c-0.597,0.858-0.798,2.462-0.798,3.479c0,6.135,5.003,11.127,11.152,11.127s11.153-4.992,11.153-11.127
	c0-1.018-0.145-2.596-0.885-3.479h4.583V32.08z"/>
  </symbol>
	<symbol id="phone" viewBox="0 0 11 11">
	  	<path fill="#E45028" d="M10.758,9.774c-0.164,0.383-0.602,0.633-0.953,0.828C9.344,10.852,8.875,11,8.352,11
		c-0.727,0-1.383-0.297-2.047-0.539c-0.477-0.172-0.938-0.383-1.367-0.648c-1.328-0.82-2.93-2.422-3.75-3.75
		C0.922,5.633,0.711,5.172,0.54,4.695C0.297,4.031,0,3.375,0,2.648c0-0.523,0.148-0.992,0.398-1.453
		c0.196-0.352,0.446-0.789,0.829-0.953C1.485,0.125,2.032,0,2.313,0c0.055,0,0.109,0,0.164,0.023
		c0.164,0.055,0.336,0.438,0.414,0.594c0.25,0.445,0.492,0.898,0.75,1.336C3.766,2.156,4,2.406,4,2.648
		C4,3.125,2.586,3.82,2.586,4.242c0,0.211,0.195,0.484,0.305,0.672C3.68,6.336,4.665,7.321,6.086,8.11
		c0.188,0.109,0.461,0.305,0.672,0.305C7.18,8.415,7.875,7,8.352,7C8.594,7,8.844,7.235,9.047,7.36
		c0.438,0.258,0.891,0.5,1.336,0.75c0.156,0.078,0.539,0.25,0.594,0.414C11,8.579,11,8.633,11,8.688
		C11,8.969,10.875,9.516,10.758,9.774z"/>
	</symbol>
	<symbol id='logo' viewBox="0 0 98.265 74.317">
    <path fill="#E55028" d="M70.098,32.877c-0.951,1.28-2.524,2.065-4.392,2.152c-2.689,0.125-3.996-2.211-4.227-7.18
	c-0.195-4.222,0.7-12.311,0.555-15.448L61.93,10.16c-0.896,0.041-5.063,17.529-7.315,20.628c-0.664,1.004-1.783,1.918-3.164,1.981
	c-3.176,0.147-5.363-3.42-5.619-8.948c-0.168-3.625,0.494-10.318,0.141-17.937c-0.038-0.824-0.203-1.152-0.352-1.146
	c-2.989,0.139-9.656,20.25-9.976,30.298c-0.044,1.463,0.219,3.921,0.578,5.215c-3.605-0.244-7.463-0.29-7.631-3.914
	c-0.154-3.324,1.577-10.404,3.644-16.679c1.444-4.371,7.037-19.38,12.939-19.653c6.537-0.304,5.774,11.524,6.294,22.693
	c0.083,1.791,0.144,3.101,0.375,4.063C57.981,8.958,59.122,3.7,62.783,3.531c2.093-0.098,3.717,2.635,3.887,6.296
	c0.099,2.129,0.073,6.435,0.195,9.05C67.411,30.645,68.626,30.214,70.098,32.877z"/>
<path fill="#E55028" d="M90.098,15.69c-0.048,2.364-6.179,11.961-12.003,11.842c-3.201-0.066-4.799-2.139-4.742-4.866
	c0.049-2.365,1.189-4.745,2.058-6.295c-5.588-0.951-6.262-3.551-6.231-5.006c0.059-2.911,2.857-4.384,4.64-4.348
	c1.419,0.029,1.832,1.202,1.816,1.968c-0.019,0.872-0.402,1.921-1.013,3.181c2.754,0.678,7.269,0.732,7.225,2.882
	c-0.04,1.964-3.348,5.211-3.402,7.868c-0.02,0.981,0.404,1.536,1.17,1.552c3.057,0.063,6.985-6.848,8.766-10.234
	C89.649,14.479,90.112,14.964,90.098,15.69z"/>
<path fill="#F9B43B" d="M94.032,41.441c-0.035,1.723-4.502,8.716-8.745,8.629c-2.334-0.048-3.497-1.558-3.456-3.546
	c0.035-1.725,0.867-3.457,1.5-4.587c-4.072-0.693-4.563-2.588-4.541-3.647c0.043-2.121,2.082-3.194,3.381-3.168
	c1.033,0.021,1.334,0.876,1.322,1.434c-0.013,0.636-0.293,1.399-0.736,2.318c2.006,0.494,5.295,0.533,5.263,2.099
	c-0.029,1.433-2.438,3.797-2.478,5.733c-0.016,0.716,0.295,1.12,0.852,1.132c2.228,0.046,5.09-4.99,6.387-7.458
	C93.706,40.559,94.044,40.912,94.032,41.441z"/>
<path fill="#F9B43B" d="M94.715,58.909c-0.028,1.357-3.547,6.866-6.89,6.798c-1.838-0.038-2.756-1.228-2.723-2.794
	c0.027-1.356,0.683-2.724,1.181-3.613c-3.207-0.545-3.595-2.038-3.577-2.873c0.035-1.671,1.641-2.516,2.664-2.495
	c0.814,0.017,1.052,0.689,1.043,1.13c-0.011,0.499-0.231,1.103-0.582,1.825c1.58,0.39,4.173,0.42,4.147,1.655
	c-0.023,1.127-1.923,2.989-1.954,4.517c-0.011,0.562,0.232,0.881,0.673,0.89c1.754,0.036,4.01-3.932,5.031-5.876
	C94.458,58.215,94.724,58.492,94.715,58.909z"/>
<path fill="#8BC334" d="M88.913,25.685c0.041-1.983,2.199-3.441,4.765-3.389c2.612,0.053,4.619,1.308,4.587,2.902
	c-0.053,2.565-2.671,5.125-5.283,5.072C90.368,30.217,88.882,27.185,88.913,25.685z"/>
<path fill="#F9B43B" d="M50.903,68.48c0.025-1.241,1.375-2.152,2.979-2.119c1.633,0.033,2.889,0.817,2.867,1.814
	c-0.032,1.604-1.669,3.204-3.303,3.171C51.812,71.313,50.884,69.418,50.903,68.48z"/>
<path fill="#E55028" d="M30.218,46.802c0.025-1.241,1.375-2.152,2.979-2.119c1.633,0.033,2.888,0.817,2.868,1.815
	c-0.033,1.603-1.669,3.203-3.303,3.17C31.127,49.635,30.198,47.739,30.218,46.802z"/>
<path fill="#F9B43B" d="M60.528,55.991c-0.062,2.992-2.562,6.684-8.605,6.56c-3.441-0.07-5.892-1.707-5.856-3.444
	c0.011-0.508,0.35-0.98,0.894-1.297c0.917,0.556,2.042,1.148,4.197,1.192c3.381,0.069,4.955-2.262,5.003-4.596
	c0.046-2.273-1.325-3.92-3.36-4.021c-1.734-0.036-3.321-0.037-4.502,0.626c-0.981-0.349-1.446-1.047-1.432-1.705
	c0.026-1.257,1.053-1.744,2.37-1.718c0.568,0.012,1.166,0.113,1.759,0.275c2.111-0.735,5.241-3.005,5.307-6.237
	c0.057-2.751-2.271-4.477-6.131-4.556c-0.809-0.017-1.648,0.057-2.519,0.158c0.202,0.334,0.315,0.666,0.309,0.994
	c-3.89,7.224-4.585,22.177-1.9,26.931c-0.398,0.441-2.318,0.642-3.185,0.624c-2.154-0.044-3.536-1.33-3.762-3.43
	c-0.854-6.542,1.331-16.736,3.201-21.785c0.256-0.804,0.539-1.456,0.85-2.049c-1.419,0.599-2.662,1.383-3.578,2.23
	c-0.982-0.288-1.657-0.932-1.645-1.56c0.004-0.209,0.068-0.388,0.191-0.596c0.683-1.152,5.832-4.1,12.624-3.961
	c8.826,0.182,11.26,4.183,11.205,6.815c-0.078,3.799-4.174,6.471-7.244,7.335C58.62,49.757,60.591,52.97,60.528,55.991z"/>
<path fill="#F9B43B" d="M84.269,41.924c-0.025,1.235-4.68,9.245-9.137,9.153c-1.82-0.037-2.973-1.038-3.353-3.129
	c-1.301,1.568-3.056,3.028-5.007,2.988c-2.277-0.047-3.387-1.501-3.33-4.234c0.022-1.104,0.296-3.312,0.342-5.557
	c0.03-1.461-0.02-2.214-0.226-3.291c0.946-0.143,1.86-0.287,2.771-0.269c1.593,0.032,2.261,0.827,2.224,2.648
	c-0.021,1.074-0.368,3.67-0.404,5.46c-0.025,1.236,0.191,1.727,0.549,1.734c0.488,0.01,1.775-0.809,3.018-2.703
	c0.126-1.397,0.319-2.857,0.345-4.094c0.024-1.171-0.056-2.052-0.241-2.574c0.557-0.088,1.207-0.172,1.794-0.159
	c2.082,0.042,3.003,1.134,2.95,3.704c-0.018,0.846-0.453,3.083-0.485,4.645c-0.03,1.496,0.149,2.216,0.735,2.228
	c1.105,0.022,4.277-3.882,5.82-7.722C83.419,40.539,84.29,40.915,84.269,41.924z"/>
<path fill="#F9B43B" d="M77.202,60.895c-2.256,0.077-4.504,0.913-6.465,2.147l-0.014,0.711c-0.08,3.894-1.665,10.649-5.854,10.563
	c-1.74-0.035-2.698-1.084-2.661-2.897c0.058-2.818,2.301-5.81,5.189-8.077c0.003-0.172,0.007-0.319-0.016-0.444
	c-0.851,0.867-1.79,1.288-2.795,1.268c-1.666-0.034-2.599-1.181-2.559-3.115c0.06-2.941,3.23-5.743,6.269-5.681
	c1.004,0.021,1.999,0.435,1.982,1.243c-0.012,0.612-0.657,0.99-1.986,1.305c-0.164-0.418-0.381-0.595-0.601-0.599
	c-1.054-0.021-2.375,2.279-2.407,3.847c-0.014,0.687,0.176,0.959,0.471,0.965c0.637,0.014,1.696-1.46,1.355-2.789
	c1.193-0.761,1.511-0.754,1.976-0.745c1.03,0.021,1.481,0.717,1.613,2.632c1.906-0.965,3.879-1.538,5.545-1.504
	C76.858,59.736,77.39,60.114,77.202,60.895z M67.22,66.058c-1.606,1.877-2.631,4.014-2.671,5.999
	c-0.011,0.515,0.104,0.858,0.399,0.864C66.074,72.944,66.914,69.04,67.22,66.058z"/>
<path fill="#F9B43B" d="M87.722,60.522c-0.023,1.176-4.121,7.342-8.676,7.248c-3.455-0.07-5.904-2.522-5.836-5.879
	c0.066-3.234,2.178-5.763,4.822-5.709c1.887,0.039,2.989,1.262,2.948,3.271c-0.044,2.156-1.718,3.715-3.185,4.688
	c0.475,0.794,1.151,1.25,1.984,1.267c1.886,0.039,4.408-2.263,6.316-5.679C87.083,59.431,87.739,59.713,87.722,60.522z
	 M77.056,60.843c-0.01,0.467,0.005,0.907,0.07,1.301c0.775-0.794,1.383-1.712,1.406-2.839c0.011-0.539-0.177-0.91-0.398-0.915
	C77.669,58.38,77.081,59.594,77.056,60.843z"/>
<polygon fill-rule="evenodd" clip-rule="evenodd" fill="#E55028" points="0.004,29.345 0.002,29.345 0,29.35 "/>
<g>
	<path fill-rule="evenodd" clip-rule="evenodd" fill="#E55028" d="M16.591,51.478c0.337-0.337,0.674-0.673,1.104-1.103
		c0.116,0.836-0.023,1.49-0.405,2.104c-0.055,0.118-0.111,0.234-0.164,0.351c-0.107,0.34-0.333,0.576-0.631,0.754
		c-0.067,0.046-0.136,0.094-0.205,0.141c-0.119,0.075-0.241,0.148-0.361,0.222c-0.079,0.021-0.158,0.038-0.237,0.057
		c0.008,0.119,0.015,0.239,0.023,0.359c1.227,0.24,2.442,0.3,3.628-0.206c1.134-0.483,1.828-1.463,2.63-2.317
		c0.106-0.254,0.296-0.423,0.524-0.562c0.157-0.273,0.365-0.497,0.646-0.646c0.177-0.271,0.427-0.451,0.722-0.569
		c0.478-0.575,1.177-0.62,1.832-0.776c-0.083-0.703-0.898-0.643-1.186-1.135c-1.96-1.289-3.993-2.394-6.42-2.469
		c-0.127,0.037-0.252,0.076-0.38,0.114c-0.26,0.09-0.516,0.183-0.776,0.264c-2.304,0.732-4.358,2.038-6.617,2.875
		c-1.697,0.631-3.445,0.862-5.247,0.731c-0.536-0.04-1.04-0.441-1.604-0.149c0.951,1.728,2.491,2.779,4.218,3.572
		c1.992,0.916,4.024,0.583,6.045,0.054c0.499-0.235,0.998-0.472,1.496-0.706C15.681,52.117,16.136,51.796,16.591,51.478z"/>
	<path fill-rule="evenodd" clip-rule="evenodd" fill="#F9B43B" d="M32.426,58.221c-1.174-0.394-2.376-0.705-3.583-0.242
		c-1.696,0.652-3.396,1.288-5.128,1.84c-1.39,0.442-2.796,0.794-4.283,0.647c-0.32-0.032-0.71-0.216-1.011,0.236
		c2.812,1.149,5.504,2.677,8.71,1.845c0.903-0.364,1.808-0.727,2.711-1.091c0.066-0.042,0.133-0.082,0.199-0.122
		c1.264-0.631,2.45-1.41,3.77-1.928C33.724,58.573,32.918,58.577,32.426,58.221z"/>
	<path fill-rule="evenodd" clip-rule="evenodd" fill="#F9B43B" d="M22.016,35.08c-0.822-0.457-1.882-0.436-2.76-0.384
		c-1.202,0.067-2.362,0.073-3.533-0.165c-0.092-0.045-0.183-0.089-0.273-0.132c0.328,0.908,0.994,1.563,1.633,2.256
		c0.411,0.444,0.821,0.54,1.39,0.581c1.492,0.108,2.934-0.383,4.417-0.295c0.226,0.058,0.453,0.114,0.678,0.173
		C23.249,36.28,22.77,35.498,22.016,35.08z"/>
	<path fill-rule="evenodd" clip-rule="evenodd" fill="#E55028" d="M38.82,70.154c-1.171-0.494-2.296-0.518-3.313,0.302
		c-0.573,0.464-1.194,0.786-1.997,1.032c1.17,0.57,2.313,0.802,3.478,0.628c0.804-0.116,1.623-0.376,2.042-1.234
		C39.193,70.544,39.27,70.343,38.82,70.154z"/>
	</symbol>
  
  <symbol id="close" viewBox="0 0 18.156 18.12">
	  <path id="Rounded_Rectangle_1" data-name="Rounded Rectangle 1" class="cls-1"  d="M449.485,3233.34l-14.142,14.14a2,2,0,0,1-2.828-2.82l14.142-14.15A2,2,0,1,1,449.485,3233.34Zm-14.142-2.83,14.142,14.15a2,2,0,0,1-2.828,2.82l-14.142-14.14A2,2,0,1,1,435.343,3230.51Z" transform="translate(-431.938 -3229.94)"/>
  </symbol>
  
	<symbol id="burger" viewBox="0 0 45.748 44.625">
    	<g>
		<path fill-rule="evenodd" clip-rule="evenodd" fill="#FFFFFF" d="M8.502,31.551c-0.005-0.227-0.009-0.484-0.015-0.742
			c0.044-0.023,0.088-0.045,0.133-0.068c0.069,0.152,0.167,0.297,0.201,0.457c0.05,0.23,0.127,0.496,0.056,0.701
			c-0.055,0.162-0.314,0.254-0.496,0.387c-0.348-0.66-0.842-0.865-1.437-0.65c-0.105,0.039-0.175,0.189-0.252,0.295
			c-0.241,0.33-0.48,0.662-0.714,0.998c-0.109,0.156-0.204,0.32-0.335,0.529c-0.415-0.328-0.825-0.654-1.236-0.979
			c0.023-0.045,0.046-0.09,0.069-0.133c0.183,0.094,0.375,0.17,0.546,0.283c0.227,0.15,0.415,0.223,0.581-0.08
			c0.031-0.057,0.154-0.063,0.236-0.09c0.083-0.029,0.226-0.045,0.237-0.09c0.023-0.104,0.003-0.232-0.04-0.334
			c-0.079-0.189-0.187-0.367-0.283-0.549c0.051-0.023,0.102-0.049,0.152-0.072c0.084,0.143,0.169,0.287,0.345,0.584
			c-0.078-0.893,0.632-0.66,0.975-0.922C7.851,30.594,7.861,31.693,8.502,31.551z"/>
		<path fill-rule="evenodd" clip-rule="evenodd" fill="#FFFFFF" d="M16.007,37.963c-0.75-0.012-1.312,0.143-1.558,0.879
			c-0.103,0.307-0.503,0.301-0.704,0.014c-0.105-0.154-0.203-0.314-0.353-0.545c-0.094,0.248-0.148,0.391-0.242,0.641
			c-0.057-0.154-0.112-0.229-0.094-0.264c0.211-0.414,0.335-0.816-0.062-1.197c0.119-0.121,0.22-0.287,0.364-0.348
			c0.099-0.041,0.259,0.064,0.424,0.113c0.004,0.09,0.01,0.193,0.015,0.295c0.033,0.592,0.359,0.785,0.878,0.518
			c0.224-0.115,0.449-0.24,0.652-0.389C15.691,37.412,15.876,37.539,16.007,37.963z"/>
		<path fill-rule="evenodd" clip-rule="evenodd" fill="#FFFFFF" d="M17.395,21.903c-0.091,0.901-0.292,1.669-0.899,2.27
			c-0.074,0.073-0.274,0.073-0.385,0.03c-0.059-0.023-0.095-0.225-0.069-0.325c0.095-0.362,0.266-0.71,0.326-1.075
			C16.46,22.23,16.982,22.217,17.395,21.903z"/>
		<path fill-rule="evenodd" clip-rule="evenodd" fill="#FFFFFF" d="M22.163,30.629c-0.577,0.775-0.577,0.775-0.4,0.992
			c-0.256,0.152-0.623,0.371-0.988,0.588c0.015-0.127,0.03-0.254,0.044-0.379c-0.169-0.328-0.339-0.656-0.509-0.982
			c0.533,0.305,0.883,0.223,1.176-0.309C21.734,30.09,21.971,30.338,22.163,30.629z"/>
		<path fill-rule="evenodd" clip-rule="evenodd" fill="#FFFFFF" d="M20.667,40.943c-0.27-0.041-0.447-0.068-0.676-0.102
			c-0.019,0.078-0.049,0.199-0.117,0.48c-0.345-0.408-0.628-0.74-0.913-1.076C19.673,39.783,19.942,39.879,20.667,40.943z"/>
		<path fill-rule="evenodd" clip-rule="evenodd" fill="#FFFFFF" d="M24.867,31.467c0.313-0.396,0.596-0.754,0.878-1.109
			c0.054,0.041,0.108,0.082,0.162,0.121c-0.086,0.109-0.202,0.207-0.251,0.33c-0.068,0.176-0.143,0.381-0.116,0.557
			c0.054,0.352-0.396,1.168-0.733,1.227c-0.063,0.012-0.152-0.01-0.198-0.051c-0.038-0.033-0.056-0.127-0.038-0.18
			C24.67,32.035,24.785,31.711,24.867,31.467z"/>
		<path fill-rule="evenodd" clip-rule="evenodd" fill="#FFFFFF" d="M23.006,32.898c0.396-0.1,0.793-0.199,1.241-0.313
			c0.067,0.129-0.488,0.473,0.044,0.674c-0.439-0.08-0.878-0.162-1.318-0.242C22.985,32.977,22.996,32.938,23.006,32.898z"/>
		<path fill-rule="evenodd" clip-rule="evenodd" fill="#FFFFFF" d="M13.699,31.629c-0.15-0.457-0.234-0.713-0.317-0.969
			c0.03-0.043,0.06-0.088,0.09-0.133c0.21,0.16,0.456,0.293,0.607,0.496C14.121,31.08,13.883,31.346,13.699,31.629z"/>
		<path fill-rule="evenodd" clip-rule="evenodd" fill="#FFFFFF" d="M18.435,33.029c0.466,0.189,0.933,0.381,1.399,0.57
			c-0.026,0.072-0.052,0.143-0.078,0.213c-0.473-0.172-0.945-0.346-1.417-0.52C18.372,33.205,18.403,33.117,18.435,33.029z"/>
		<path fill-rule="evenodd" clip-rule="evenodd" fill="#FFFFFF" d="M17.017,43.357c0.435,0.342,0.806,0.637,1.257,0.994
			C17.438,44.225,17.009,43.895,17.017,43.357z"/>
		<path fill-rule="evenodd" clip-rule="evenodd" fill="#FFFFFF" d="M19.689,37.084c0.444,0.242,0.375,0.605-0.315,1.201
			c0.055-0.191,0.114-0.385,0.165-0.578C19.592,37.502,19.639,37.295,19.689,37.084z"/>
		<path fill-rule="evenodd" clip-rule="evenodd" fill="#FFFFFF" d="M15.994,44.625c-0.127-0.264-0.226-0.447-0.302-0.639
			c-0.035-0.084-0.068-0.227-0.026-0.27c0.058-0.061,0.261-0.092,0.274-0.068c0.116,0.215,0.229,0.439,0.283,0.674
			C16.239,44.4,16.08,44.518,15.994,44.625z"/>
		<path fill-rule="evenodd" clip-rule="evenodd" fill="#FFFFFF" d="M17.326,39.959c-0.298-0.303-0.588-0.607-0.023-1.18
			c0.074,0.465,0.128,0.809,0.184,1.152C17.432,39.941,17.379,39.949,17.326,39.959z"/>
		<path fill-rule="evenodd" clip-rule="evenodd" fill="#FFFFFF" d="M14.704,31.406c0.295,0.266,0.589,0.529,0.884,0.795
			c-0.052,0.053-0.104,0.105-0.155,0.158c-0.332-0.229-0.72-0.4-0.875-0.805C14.607,31.506,14.655,31.455,14.704,31.406z"/>
		<path fill-rule="evenodd" clip-rule="evenodd" fill="#FFFFFF" d="M13.478,28.348c0.315-0.174,0.612-0.338,0.999-0.552
			c0.008,0.116,0.056,0.364,0.022,0.375C14.176,28.281,13.903,28.785,13.478,28.348z"/>
		<path fill-rule="evenodd" clip-rule="evenodd" fill="#FFFFFF" d="M13.128,39.658c-0.044,0.549-0.087,1.098-0.13,1.648
			c-0.063-0.004-0.127-0.01-0.19-0.016c0.04-0.543,0.08-1.088,0.121-1.631C12.996,39.658,13.062,39.658,13.128,39.658z"/>
		<path fill-rule="evenodd" clip-rule="evenodd" fill="#FFFFFF" d="M26.183,27.408c0.021,0.434,0.04,0.867,0.061,1.301
			c-0.045,0.006-0.089,0.01-0.133,0.016c-0.035-0.434-0.07-0.867-0.104-1.299C26.066,27.42,26.125,27.414,26.183,27.408z"/>
	</g>
	<path fill-rule="evenodd" clip-rule="evenodd" fill="#FFFFFF" d="M18.652,6.31c-0.299,0.024-0.6,0.048-0.901,0.071l-0.323,0.465
		l0.57,0.557c0.673,0.658,1.439,1.02,2.16,1.02c0,0,0,0,0,0c0.641,0,1.213-0.295,1.571-0.811c0.288-0.416,0.236-0.938,0.179-1.211
		c-0.087-0.418-0.285-0.733-0.575-0.913c-0.493-0.306-0.984-0.461-1.459-0.461c-0.518,0-1.258,0.193-1.909,1.059
		c0.213-0.034,0.428-0.071,0.638-0.091C18.62,6.1,18.636,6.204,18.652,6.31z"/>
	<path fill-rule="evenodd" clip-rule="evenodd" fill="#FFFFFF" d="M8.786,10.472L7.979,9.504l-0.7,1.049
		c-0.042,0.063-0.101,0.129-0.157,0.198C6.841,11.089,6.417,11.6,6.674,12.24c0.2,0.496,0.498,0.925,0.762,1.304
		c0.091,0.132,0.183,0.263,0.269,0.396L8.1,14.457l1.531-0.275l0.185-0.514c0.021-0.06,0.057-0.125,0.09-0.192
		c0.165-0.335,0.44-0.894,0.115-1.447c-0.266-0.454-0.596-0.827-0.915-1.188C8.999,10.719,8.89,10.597,8.786,10.472z"/>
	<path fill-rule="evenodd" clip-rule="evenodd" fill="#FFFFFF" d="M29.132,11.011l0.666,0.866l2.879-2.983l-0.756-0.651
		c-0.063-0.055-0.138-0.129-0.213-0.203c-0.341-0.336-0.635-0.625-1.097-0.625l-0.274,0.004l-0.221,0.131
		c-0.619,0.363-1.136,0.826-1.6,1.27c-0.643,0.609-0.131,1.25,0.242,1.719C28.871,10.678,29.001,10.841,29.132,11.011z"/>
	<path fill-rule="evenodd" clip-rule="evenodd" fill="#FFFFFF" d="M14.593,13.941c0.065,0.064,0.131,0.127,0.181,0.181l0.661,0.725
		l1.025-1.009c0.374-0.361,0.76-0.735,1.112-1.16c0.494-0.598,0.079-1.182-0.225-1.609c-0.102-0.144-0.225-0.316-0.354-0.515
		L16.25,9.406l-0.807,1.104c-0.142,0.193-0.273,0.371-0.396,0.535c-0.377,0.505-0.675,0.904-0.937,1.359
		C13.713,13.092,14.264,13.624,14.593,13.941z"/>
	<path fill-rule="evenodd" clip-rule="evenodd" fill="#FFFFFF" d="M12.983,6.334c-0.078-0.049-0.156-0.098-0.236-0.145l-0.231-0.131
		h-0.253c-0.467,0-0.739,0.291-1.054,0.627c-0.063,0.068-0.126,0.137-0.18,0.188l-0.7,0.664l1.001,1.011
		c0.088,0.091,0.182,0.183,0.272,0.273c0.21-0.165,0.53-0.227,0.968-0.178c-0.237,0.146-0.348,0.415-0.484,0.644
		c0.134,0.123,0.265,0.248,0.408,0.367l0.279,0.219h0.337c0,0,0,0,0,0c0.364,0,0.602-0.17,0.995-0.452
		c0.141-0.101,0.311-0.224,0.503-0.35l1.139-0.747l-1.621-1.186c-0.357-0.266-0.661-0.49-0.968-0.693
		c-0.417-0.014-0.835-0.037-1.252-0.116C12.265,6.329,12.625,6.334,12.983,6.334z"/>
	<path fill-rule="evenodd" clip-rule="evenodd" fill="#FFFFFF" d="M22.971,14.09l0.733,1.051l2.239-2.893l-1.389-1.453
		c-0.008,0.1-0.03,0.212-0.07,0.339c-0.068,0.216,0.294,0.581,0.479,0.861c0.103,0.158,0.248,0.287,0.483,0.551
		c-1.015-0.304-1.081-0.354-1.439-1.128c-0.224-0.48-0.434-0.967-0.648-1.452l-0.486,0.743c-0.059,0.09-0.135,0.18-0.209,0.271
		c-0.285,0.348-0.674,0.823-0.63,1.448c0.042,0.596,0.411,1.029,0.708,1.377C22.822,13.9,22.904,13.994,22.971,14.09z
		 M24.776,12.685c0.11,0.04,0.202,0.396,0.152,0.56c-0.177,0.584-0.797,0.96-1.715,1.012c-0.052-0.121-0.224-0.322-0.192-0.481
		C23.135,13.213,24.274,12.504,24.776,12.685z"/>
	<path fill-rule="evenodd" clip-rule="evenodd" fill="#FFFFFF" d="M32.065,14.454c0.104,0.06,0.206,0.134,0.31,0.206
		c0.36,0.255,0.809,0.572,1.445,0.598c0.581,0,1.006-0.348,1.346-0.629c0.088-0.071,0.175-0.146,0.262-0.203l1.075-0.705
		l-2.835-2.31l-2.748,2.38L32.065,14.454z"/>
	<path fill-rule="evenodd" clip-rule="evenodd" fill="#FFFFFF" d="M17.044,2.939c-0.084,0.032-0.217,0.082-0.373,0.141
		c0.044,0.177,0.147,0.375,0.149,0.545c1.888-0.451,3.869-0.699,5.889-0.699c1.043,0,2.075,0.062,3.088,0.182
		c-0.216,0.115-0.396,0.305-0.591,0.512c-0.064,0.067-0.129,0.137-0.183,0.188l-0.698,0.658l0.993,1.02
		c0.358,0.375,0.729,0.762,1.154,1.115l0.282,0.224h0.34l0,0c0.355,0,0.605-0.171,0.981-0.429c0.144-0.1,0.317-0.219,0.515-0.342
		l1.171-0.729L28.14,4.105C27.716,3.783,27.367,3.518,27,3.28c3.531,0.593,6.788,1.915,9.438,3.868
		c3.064,2.257,4.755,4.932,5.171,8.176c0.002,0.024,0.006,0.049,0.008,0.074H17.251c0.204,0.1,0.238,0.354,0.159,0.852
		c-0.225-0.268-0.451-0.538-0.713-0.852H6.009c0.059,0.242,0.048,0.589-0.043,1.068c-0.099-0.239-0.193-0.48-0.297-0.718
		c-0.051-0.118-0.107-0.233-0.162-0.351H3.9c0.007-0.039,0.014-0.076,0.021-0.115c0.158-0.842,0.307-1.638,0.563-2.365
		c0.855-2.424,2.507-4.402,5.198-6.229c1.619-1.098,3.459-1.96,5.43-2.589c-0.119-0.622-0.237-1.246-0.355-1.866
		C12.531,2.923,10.451,3.89,8.625,5.13c-0.83,0.563-1.569,1.151-2.238,1.764c0.045,0.226-0.045,0.729,0.532,0.546
		c-0.51,0.271-1.02,0.539-1.529,0.809C5.368,8.201,5.348,8.15,5.328,8.103c0.186-0.242,0.375-0.487,0.569-0.74
		c-1.488,1.479-2.546,3.108-3.189,4.929c-0.305,0.865-0.475,1.77-0.638,2.646c-0.074,0.395-0.149,0.795-0.238,1.201l-0.25,1.145
		h5.971c-0.341-0.072-0.682-0.145-1.022-0.217c0-0.237,0-0.474,0-0.711c0.5,0.227,1,0.454,1.5,0.682
		c-0.027,0.082-0.054,0.164-0.081,0.246h35.681l-0.092-1.44c-0.015-0.286-0.029-0.524-0.059-0.759
		c-0.483-3.781-2.421-6.875-5.922-9.453c-4.018-2.96-9.291-4.59-14.847-4.59c-2.055,0-4.075,0.235-6.011,0.672
		c0.004,0.01,0.008,0.02,0.012,0.029C15.886,2.447,17.097,2.45,17.044,2.939z M10.413,4.688c0.235,0.215,0.449,0.41,0.687,0.627
		c-0.275,0.024-0.628,0.058-1.187,0.107C10.16,5.059,10.282,4.88,10.413,4.688z"/>
	<path fill-rule="evenodd" clip-rule="evenodd" fill="#FFFFFF" d="M15.996,3.127c-0.096,0.024-0.192,0.051-0.288,0.076
		c0.011,0.227-0.013,0.473-0.006,0.703c0.205-0.06,0.417-0.104,0.625-0.158C16.213,3.534,16.104,3.328,15.996,3.127z"/>
	<polygon fill-rule="evenodd" clip-rule="evenodd" fill="#FFFFFF" points="15.443,2.029 15.433,2.031 15.436,2.035 	"/>
	<path fill-rule="evenodd" clip-rule="evenodd" fill="#FFFFFF" d="M36.421,11.349l0.855,1.039l0.055-0.045
		c-0.222-0.56-0.377-1.157-0.798-1.604c-0.119-0.127-0.045-0.436-0.06-0.66c0.076-0.02,0.152-0.039,0.229-0.06
		c0.439,0.578,0.879,1.157,1.328,1.749l1.634-1.342l-0.995-1.021c-0.432-0.447-0.806-0.832-1.215-1.183l-0.266-0.229h-0.352
		c-0.721,0-1.443,1.072-1.449,1.082l-0.271,0.519l0.311,0.47C35.736,10.527,36.083,10.945,36.421,11.349z"/>
	<path fill-rule="evenodd" clip-rule="evenodd" fill="#FFFFFF" d="M43.208,31.662c0.081,0.074,0.158,0.146,0.236,0.217
		c0.029-0.41,0.04-0.822,0.014-1.23l-0.057-0.883h-0.885c-0.34,0-0.684,0.01-1.027,0.021c-0.326,0.01-0.652,0.02-0.979,0.02l0,0
		c-0.422,0-0.766-0.018-1.082-0.055c-0.586-0.07-1.122-0.104-1.637-0.104c-2.473,0-4.43,0.84-5.947,2.561
		c-0.239-0.275-0.465-0.545-0.668-0.82c-1.077-1.465-2.551-1.652-3.715-1.652h-0.076c-0.993,0.008-2.014,0.014-3.07,0.02
		c0.203,0.543,0.299,1.098,0.226,1.703c-0.007,0.059-0.054,0.123-0.114,0.182c1.022-0.006,2.01-0.012,2.973-0.02h0.063
		c1.143,0,1.717,0.232,2.197,0.885c0.324,0.441,0.686,0.854,1.034,1.252c0.156,0.178,0.315,0.359,0.474,0.545l0.803,0.949
		l0.697-1.029c1.261-1.859,2.842-2.689,5.125-2.689c0.336,0,0.693,0.023,1.068,0.059c0-0.439,0-0.865,0-1.281
		c0.087,0,0.174-0.004,0.262-0.004c0,0.178-0.041,0.369,0.01,0.533c0.07,0.234,0.159,0.5,0.328,0.658
		c0.043,0.039,0.083,0.094,0.12,0.158c0.286,0.021,0.584,0.037,0.931,0.037l0,0c0.346,0,0.691-0.012,1.037-0.021
		c0.01-0.002,0.021-0.002,0.031-0.002c-0.111,1.91-0.955,3.83-2.387,5.381c-1.765,1.912-4.182,3.029-6.631,3.064
		c-6.508,0.1-13.179,0.09-19.823-0.029c-2.327-0.041-4.633-1.094-6.325-2.891c-1.466-1.559-2.346-3.537-2.486-5.545l11.911,0.008
		c3.099,0,5.707-0.006,8.089-0.016c-0.036-0.041-0.067-0.082-0.083-0.119c-0.194-0.441-0.298-0.93-0.531-1.348
		c-0.083-0.148-0.115-0.285-0.122-0.414c-2.184,0.008-4.571,0.012-7.354,0.012L2.071,29.766l-0.039,0.902
		c-0.119,2.811,0.978,5.66,3.01,7.818c2.038,2.164,4.832,3.436,7.664,3.484c3.638,0.064,7.308,0.098,10.907,0.098
		c2.993,0,6.014-0.023,8.978-0.066c2.962-0.045,5.874-1.385,7.987-3.672c1.59-1.723,2.567-3.84,2.822-5.994
		c-0.191,0.018-0.416,0.037-0.691,0.063C42.956,32.035,43.078,31.855,43.208,31.662z M26.585,40.521
		c-0.006-0.068-0.01-0.137-0.016-0.205c0.341-0.008,0.696-0.07,1.012,0.014c0.088,0.023,0.061,0.482,0.102,0.918
		C27.165,40.904,26.875,40.715,26.585,40.521z M30.023,40.6c-0.518,0.033-1.049,0.172-1.529-0.115c0.01-0.09,0.02-0.178,0.028-0.268
		c0.511,0.033,1.021,0.064,1.532,0.098C30.044,40.408,30.034,40.504,30.023,40.6z"/>
	<path fill-rule="evenodd" clip-rule="evenodd" fill="#FFFFFF" d="M2.93,26.396c3.467,0.01,6.939,0.012,10.438,0.014
		c-0.075-0.14-0.145-0.279-0.207-0.42c-0.168-0.384,0.262-1.04,0.698-1.18c0.165-0.053,0.29-0.156,0.38-0.285
		c-0.601,0-1.198-0.001-1.797-0.001c0.206,0.571,0.408,1.134,0.607,1.688c-0.497-0.218-0.915-0.975-1.091-1.689
		c-3.019,0-6.024-0.004-9.022-0.012c-0.334-0.001-0.61-0.104-0.797-0.295c-0.172-0.175-0.26-0.415-0.254-0.693
		c0.015-0.785,0.689-0.953,1.252-0.955c1.915-0.01,3.832-0.013,5.747-0.014c-0.013-0.061-0.021-0.12-0.018-0.18
		c0.017-0.38,0.151-0.752,0.239-1.139c0.649,0.311,1.059,0.77,1.335,1.319l3.641,0.002c-0.039-0.231-0.076-0.462-0.099-0.696
		c0.203,0.295,0.354,0.515,0.465,0.696l1.549,0.001c0.579,0,1.158,0.004,1.738,0.008c0.583,0.004,1.167,0.008,1.75,0.008
		c1.025,0,1.862-0.013,2.634-0.039l0.103-0.002c0.129,0,0.244,0.012,0.354,0.029c-0.084-0.091-0.168-0.195-0.251-0.271
		c0.223-0.219,0.419-0.486,0.684-0.623c0.081-0.041,0.349,0.287,0.68,0.576c-0.296,0.194-0.494,0.387-0.675,0.467
		c0.188,0.098,0.363,0.234,0.546,0.436c0.428,0.472,0.869,0.912,1.347,1.377l-9.704,0.002c-0.186,0-0.368,0-0.554,0
		c-0.167,0.674-0.599,1.386-0.95,1.482c-0.084,0.084-0.167,0.167-0.251,0.25c0.066,0.051,0.135,0.102,0.202,0.152
		c0.519,0,1.033,0,1.554,0l14.343-0.002l-1.646-1.615c-0.371-0.364-0.721-0.699-1.053-1.018c-0.712-0.684-1.325-1.272-1.893-1.896
		c-0.03-0.033-0.063-0.063-0.095-0.096c-0.021,0.125-0.244,0.239-0.375,0.359c-0.156-0.177-0.389-0.336-0.44-0.539
		c-0.018-0.071,0.088-0.178,0.235-0.325c-0.598-0.425-1.267-0.63-2.058-0.63l-0.168,0.002c-0.75,0.026-1.566,0.039-2.569,0.039
		c-0.58,0-1.159-0.005-1.738-0.008c-0.583-0.004-1.167-0.008-1.77-0.008L9.049,20.67c-0.121,0-0.241,0-0.361,0
		c0.044,0.098,0.107,0.236,0.214,0.47c-0.675-0.135-1.229-0.247-1.785-0.356c0.013-0.041,0.028-0.071,0.042-0.109
		c-0.945,0.002-1.891,0.003-2.836,0.007c0.416,0.382,0.734,0.676,1.05,0.966c-0.047,0.052-0.093,0.104-0.14,0.156
		c-0.534-0.067-1.057-0.148-0.971-1.122c-0.378,0.001-0.756,0.001-1.134,0.003c-0.319,0.001-0.612,0.047-0.893,0.113
		c0.021,0.014,0.042,0.024,0.063,0.039c-0.768,0.59-1.213,1.195-0.873,2.14c0.142,0.393-0.269,0.706-0.702,0.574
		c-0.208-0.062-0.417-0.138-0.703-0.235C0.015,23.373,0.001,23.427,0,23.486c0,0.01,0.002,0.02,0.002,0.029
		c0.064,0.201,0.117,0.367,0.194,0.609c-0.061-0.037-0.11-0.063-0.154-0.085c0.095,0.569,0.351,1.088,0.75,1.495
		C1.332,26.088,2.091,26.395,2.93,26.396z"/>
	<path fill-rule="evenodd" clip-rule="evenodd" fill="#FFFFFF" d="M44.005,22.292c-0.275-0.465-1.227-0.737-2.1-0.759
		c-0.086,0.234-0.27,0.437-0.506,0.51c-0.238,0.074-0.481,0.133-0.848,0.232c0.076-0.209,0.143-0.398,0.207-0.579
		c-0.118,0.048-0.221,0.104-0.3,0.174c-1.174,1.034-2.284,2.14-3.419,3.218c0.11,0.127,0.221,0.254,0.33,0.381
		c1.725,0.006,3.457,0.1,5.166-0.059c0.649-0.061,1.474-0.633,1.781-1.205C44.568,23.742,44.326,22.83,44.005,22.292z"/>
	<path fill-rule="evenodd" clip-rule="evenodd" fill="#FFFFFF" d="M35.312,32.168c0.194-0.514,0.391-1.027,0.527-1.389
		c-0.352-0.076-0.352-0.076-0.389-1.322c-0.428-0.141-0.866-0.203-0.757,0.451c0.13,0.771-0.159,1.135-0.944,1.252
		c0.435,0.197,0.869,0.393,1.303,0.588C35.138,31.889,35.225,32.027,35.312,32.168z"/>
	<path fill-rule="evenodd" clip-rule="evenodd" fill="#FFFFFF" d="M45.734,34.465c0.061-0.066-0.094-0.469-0.139-0.467
		c-0.338,0.016-0.673,0.092-1.139,0.174c0.219,0.348,0.348,0.553,0.535,0.852C45.271,34.824,45.541,34.68,45.734,34.465z"/>
	<path fill-rule="evenodd" clip-rule="evenodd" fill="#FFFFFF" d="M45.365,31.619c-0.888-0.1-1.295,0.252-1.271,1.014
		C44.935,32.807,44.861,31.928,45.365,31.619z"/>
	<path fill-rule="evenodd" clip-rule="evenodd" fill="#FFFFFF" d="M39.714,30.416c-0.7,0.221-0.415-0.572-0.586-0.646
		c-0.362,0.471-0.684,0.891-1.006,1.309c0.021,0.047,0.041,0.098,0.063,0.146C38.695,30.953,39.205,30.686,39.714,30.416z"/>
	<path fill-rule="evenodd" clip-rule="evenodd" fill="#FFFFFF" d="M35.564,34.605c-0.03-0.092-0.061-0.182-0.092-0.273
		c-0.625,0.178-1.249,0.359-1.873,0.539c0.038,0.115,0.076,0.23,0.115,0.346C34.331,35.014,34.948,34.811,35.564,34.605z"/>
	<path fill-rule="evenodd" clip-rule="evenodd" fill="#FFFFFF" d="M38.118,37.973c0.116,0.254,0.236,0.5,0.347,0.752
		c0.104,0.236,0.197,0.479,0.297,0.719C38.982,38.287,38.76,37.861,38.118,37.973z"/>
	<path fill-rule="evenodd" clip-rule="evenodd" fill="#FFFFFF" d="M35.309,20.012c-0.2,0.085-0.356,0.273-0.524,0.411
		c0.195,0.081,0.393,0.216,0.597,0.229c0.169,0.011,0.382-0.087,0.505-0.21c0.066-0.066,0.029-0.383-0.035-0.409
		C35.691,19.967,35.464,19.945,35.309,20.012z"/>
	<path fill-rule="evenodd" clip-rule="evenodd" fill="#FFFFFF" d="M25.722,33.107c0.025-0.041-0.221-0.252-0.322-0.363
		c-0.219,0.525-0.389,0.93-0.569,1.359C25.611,34.205,25.486,33.477,25.722,33.107z"/>
	<path fill-rule="evenodd" clip-rule="evenodd" fill="#FFFFFF" d="M28.689,12.939c0.016-0.186,0.014-0.376,0.051-0.558
		c0.054-0.258,0.137-0.511,0.212-0.786c-0.237,0-0.534,0-0.82,0c-0.083,0.227-0.231,0.433-0.21,0.619
		c0.027,0.223,0.166,0.455,0.319,0.629C28.322,12.937,28.535,12.912,28.689,12.939z"/>
	<path fill-rule="evenodd" clip-rule="evenodd" fill="#FFFFFF" d="M25.878,7.467c-0.686,0.302-0.943,1.207-0.453,1.955
		C25.57,8.799,25.714,8.175,25.878,7.467z"/>
	<path fill-rule="evenodd" clip-rule="evenodd" fill="#FFFFFF" d="M12.938,11.49c0.061-0.068-0.094-0.469-0.139-0.467
		c-0.338,0.015-0.673,0.092-1.138,0.173c0.218,0.347,0.347,0.554,0.535,0.852C12.475,11.85,12.746,11.704,12.938,11.49z"/>
	<path fill-rule="evenodd" clip-rule="evenodd" fill="#FFFFFF" d="M27.379,10.196c-0.563-0.525-0.782-0.539-1.44-0.114
		c0.109,0.209,0.201,0.381,0.31,0.589C26.614,10.518,26.98,10.364,27.379,10.196z"/>
	<path fill-rule="evenodd" clip-rule="evenodd" fill="#FFFFFF" d="M2.769,11.631c-0.031-0.092-0.062-0.184-0.092-0.275
		c-0.625,0.18-1.25,0.361-1.874,0.54c0.039,0.116,0.077,0.231,0.115,0.345C1.535,12.038,2.152,11.834,2.769,11.631z"/>
	<path fill-rule="evenodd" clip-rule="evenodd" fill="#FFFFFF" d="M4.262,18.625c-0.002,0.021,0,0.035-0.002,0.056
		c0.021,0,0.041,0,0.062,0C4.301,18.662,4.284,18.645,4.262,18.625z"/>
	<path fill-rule="evenodd" clip-rule="evenodd" fill="#FFFFFF" d="M25.958,18.369c0.092,0.094,0.184,0.188,0.275,0.283
		c0.254-0.342,0.51-0.684,0.806-1.08C26.354,17.446,26.042,17.709,25.958,18.369z"/>
	<path fill-rule="evenodd" clip-rule="evenodd" fill="#FFFFFF" d="M22.148,22.068c0.177-0.432,0.063-0.792-0.505-1.041
		c0.099,0.364,0.198,0.73,0.297,1.094C22.009,22.104,22.079,22.086,22.148,22.068z"/>
	<path fill-rule="evenodd" clip-rule="evenodd" fill="#FFFFFF" d="M26.92,20.708c0-0.488,0-0.977,0-1.464
		c-0.091,0.004-0.181,0.008-0.271,0.012c0.036,0.495,0.071,0.99,0.107,1.485C26.81,20.73,26.866,20.719,26.92,20.708z"/>
	<path fill-rule="evenodd" clip-rule="evenodd" fill="#FFFFFF" d="M4.147,0c-0.055,0.052-0.11,0.104-0.165,0.156
		c0.382,0.412,0.764,0.822,1.146,1.234C5.168,1.349,5.208,1.309,5.25,1.268C4.882,0.846,4.515,0.422,4.147,0z"/>
</g>

	</symbol>

	<symbol id="kkal"  viewBox="0 0 60 60.178">
	  
	<path fill-rule="evenodd" clip-rule="evenodd" fill="#FFFFFF" d="M38.164,48.505c0.149,0.27,0.217,0.584,0.342,0.87
		c0.035,0.08,0.162,0.192,0.213,0.177c0.095-0.029,0.225-0.133,0.236-0.219c0.086-0.707-0.18-1.311-0.586-1.946
		C38.262,47.804,37.928,48.082,38.164,48.505z"/>
	<path fill-rule="evenodd" clip-rule="evenodd" fill="#FFFFFF" d="M44.893,51.72c0.28,0.126,0.561,0.253,0.84,0.378
		c0.056,0.09,0.111,0.181,0.167,0.271c0.126-0.332,0.252-0.663,0.341-0.895c-0.227-0.049-0.227-0.049-0.25-0.854
		c-0.277-0.091-0.56-0.131-0.488,0.291C45.584,51.411,45.398,51.644,44.893,51.72z"/>
	<path fill-rule="evenodd" clip-rule="evenodd" fill="#FFFFFF" d="M48.188,48.593c0,0.379,0,0.758,0,1.179
		c0.072,0.202,0.165,0.471,0.268,0.738c0.017,0.043,0.075,0.094,0.118,0.096c0.051,0.002,0.121-0.029,0.156-0.069
		c0.188-0.213,0.061-0.979-0.155-1.18c-0.108-0.102-0.166-0.273-0.212-0.423c-0.032-0.106-0.006-0.229-0.006-0.345
		C48.301,48.59,48.244,48.591,48.188,48.593z"/>
	<path fill-rule="evenodd" clip-rule="evenodd" fill="#FFFFFF" d="M47.752,51.761c0.329-0.174,0.658-0.348,0.986-0.521
		c-0.451,0.143-0.267-0.368-0.377-0.418c-0.234,0.306-0.441,0.575-0.648,0.845C47.727,51.698,47.739,51.729,47.752,51.761z"/>
	<path fill-rule="evenodd" clip-rule="evenodd" fill="#FFFFFF" d="M40.263,55.044c0.003,0.045,0.007,0.089,0.011,0.133
		c0.186,0.124,0.373,0.248,0.707,0.469c-0.027-0.281-0.008-0.577-0.065-0.592C40.711,55,40.482,55.039,40.263,55.044z"/>
	<path fill-rule="evenodd" clip-rule="evenodd" fill="#FFFFFF" d="M44.869,54.335c0.398-0.131,0.796-0.262,1.193-0.393
		c-0.02-0.059-0.039-0.119-0.059-0.178c-0.403,0.116-0.807,0.233-1.209,0.349C44.82,54.188,44.845,54.262,44.869,54.335z"/>
	<path fill-rule="evenodd" clip-rule="evenodd" fill="#FFFFFF" d="M41.504,55.154c0.309,0.184,0.651,0.095,0.986,0.073
		c0.006-0.062,0.013-0.123,0.02-0.184c-0.33-0.021-0.659-0.042-0.988-0.063C41.516,55.038,41.51,55.096,41.504,55.154z"/>
	<path fill-rule="evenodd" clip-rule="evenodd" fill="#FFFFFF" d="M39.508,52.741c-0.141,0.339-0.25,0.6-0.367,0.876
		c0.504,0.066,0.423-0.404,0.576-0.642C39.732,52.95,39.574,52.813,39.508,52.741z"/>
	<path fill-rule="evenodd" clip-rule="evenodd" fill="#FFFFFF" d="M49.279,12.807c0.43-0.424,0.57-0.966,0.635-1.602
		c-0.291,0.221-0.659,0.231-0.725,0.635c-0.043,0.258-0.164,0.503-0.23,0.759c-0.019,0.071,0.007,0.213,0.049,0.229
		C49.086,12.858,49.227,12.858,49.279,12.807z"/>
	<path fill-rule="evenodd" clip-rule="evenodd" fill="#FFFFFF" d="M52.301,18.479c0.258-0.153,0.516-0.307,0.697-0.415
		c-0.125-0.152-0.125-0.152,0.282-0.7c-0.136-0.206-0.303-0.381-0.478-0.064c-0.207,0.375-0.454,0.433-0.83,0.218
		c0.119,0.23,0.239,0.462,0.359,0.693C52.322,18.301,52.311,18.39,52.301,18.479z"/>
	<path fill-rule="evenodd" clip-rule="evenodd" fill="#FFFFFF" d="M55.146,18.75c0.238-0.042,0.555-0.619,0.518-0.866
		c-0.019-0.125,0.033-0.269,0.082-0.393c0.034-0.087,0.116-0.156,0.178-0.233c-0.039-0.029-0.076-0.057-0.115-0.086
		c-0.199,0.252-0.398,0.504-0.619,0.783c-0.059,0.173-0.139,0.402-0.211,0.632c-0.012,0.037,0.002,0.103,0.027,0.126
		C55.039,18.743,55.102,18.758,55.146,18.75z"/>
	<path fill-rule="evenodd" clip-rule="evenodd" fill="#FFFFFF" d="M54.752,18.746c-0.316,0.08-0.597,0.15-0.876,0.22
		c-0.007,0.028-0.016,0.056-0.023,0.084c0.31,0.057,0.62,0.115,0.931,0.171C54.407,19.08,54.799,18.836,54.752,18.746z"/>
	<path fill-rule="evenodd" clip-rule="evenodd" fill="#FFFFFF" d="M49.087,27.031c-0.038-0.167-0.118-0.324-0.2-0.476
		c-0.009-0.018-0.152,0.005-0.193,0.048c-0.029,0.03-0.006,0.13,0.02,0.19c0.054,0.135,0.123,0.264,0.213,0.451
		C48.986,27.168,49.099,27.085,49.087,27.031z"/>
	<path fill-rule="evenodd" clip-rule="evenodd" fill="#FFFFFF" d="M47.87,15.629c0.024-0.008-0.01-0.183-0.016-0.265
		c-0.272,0.151-0.481,0.267-0.704,0.39C47.449,16.063,47.643,15.707,47.87,15.629z"/>
	<path fill-rule="evenodd" clip-rule="evenodd" fill="#FFFFFF" d="M46.762,23.739c-0.028,0.384-0.057,0.768-0.085,1.152
		c0.044,0.004,0.089,0.007,0.134,0.011c0.031-0.388,0.062-0.776,0.092-1.164C46.855,23.738,46.809,23.738,46.762,23.739z"/>
	<path fill-rule="evenodd" clip-rule="evenodd" fill="#FFFFFF" d="M56.161,16.009c-0.015-0.306-0.028-0.612-0.043-0.918
		c-0.042,0.004-0.083,0.008-0.124,0.012c0.023,0.306,0.049,0.611,0.073,0.917C56.098,16.016,56.129,16.013,56.161,16.009z"/>
	<path fill-rule="evenodd" clip-rule="evenodd" fill="#FFFFFF" d="M29.991,18.645c1.612,0,3.124-0.623,4.253-1.754
		c1.139-1.141,1.791-2.702,1.789-4.282c-0.006-3.307-2.654-5.997-5.901-5.997l-0.119,0.002c-1.659-0.042-3.212,0.594-4.375,1.796
		c-1.099,1.135-1.702,2.621-1.7,4.185c0.004,3.206,2.502,5.859,5.688,6.041C29.748,18.641,29.872,18.616,29.991,18.645z
		 M27.467,12.59c-0.001-0.632,0.258-1.261,0.707-1.727c0.451-0.466,1.043-0.723,1.664-0.723l0.152,0.004l0.142-0.003
		c1.283,0,2.369,1.133,2.372,2.474c0,0.64-0.282,1.306-0.758,1.782c-0.327,0.328-0.896,0.719-1.755,0.719
		c-0.055,0-0.11-0.001-0.166-0.005C28.504,15.035,27.469,13.928,27.467,12.59z"/>
	<path fill-rule="evenodd" clip-rule="evenodd" fill="#FFFFFF" d="M6.88,50.749c-0.13,0.573-0.329,1.126-0.354,1.688
		c-0.017,0.378,0.213,0.767,0.333,1.15c0.237-0.24,0.474-0.48,0.731-0.74c0.58,0.544,1.236,1.157,1.892,1.771
		C9.153,52.95,8.523,51.536,6.88,50.749z"/>
	<path fill-rule="evenodd" clip-rule="evenodd" fill="#FFFFFF" d="M24.725,40.104c0,0.872,0,1.744,0,2.709
		c0.166,0.465,0.379,1.087,0.616,1.7c0.038,0.099,0.175,0.217,0.271,0.222c0.119,0.005,0.278-0.067,0.359-0.159
		c0.435-0.489,0.141-2.25-0.356-2.713c-0.251-0.234-0.382-0.628-0.487-0.974c-0.074-0.243-0.015-0.528-0.015-0.794
		C24.983,40.098,24.854,40.102,24.725,40.104z"/>
	<path fill-rule="evenodd" clip-rule="evenodd" fill="#FFFFFF" d="M6.793,16.1c-0.145-0.206-0.523-0.301-0.806-0.329
		c-0.114-0.011-0.306,0.276-0.381,0.461c-0.243,0.595-0.447,1.207-0.726,1.977c0.543-0.148,0.903-0.234,1.257-0.344
		C6.83,17.651,7.215,16.696,6.793,16.1z"/>
	<path fill-rule="evenodd" clip-rule="evenodd" fill="#FFFFFF" d="M3.637,33.25C2.6,33.581,3.022,32.403,2.77,32.291
		c-0.539,0.702-1.016,1.322-1.492,1.942c0.03,0.072,0.061,0.145,0.092,0.217C2.125,34.05,2.881,33.65,3.637,33.25z"/>
	<path fill-rule="evenodd" clip-rule="evenodd" fill="#FFFFFF" d="M3.438,58.775c-0.049-0.021-0.316,0.268-0.332,0.428
		c-0.011,0.114,0.209,0.288,0.36,0.375c0.343,0.195,0.708,0.353,1.215,0.6c0-0.264,0.1-0.629-0.019-0.725
		C4.302,59.163,3.865,58.961,3.438,58.775z"/>
	<path fill-rule="evenodd" clip-rule="evenodd" fill="#FFFFFF" d="M19.457,30.759c-0.298,0.127-0.529,0.405-0.779,0.61
		c0.291,0.12,0.583,0.32,0.887,0.339c0.25,0.016,0.566-0.13,0.748-0.311c0.1-0.099,0.042-0.569-0.053-0.608
		C20.021,30.693,19.686,30.661,19.457,30.759z"/>
	<path fill-rule="evenodd" clip-rule="evenodd" fill="#FFFFFF" d="M21.635,35.389c0.566,0.61,1.133,1.219,1.699,1.829
		c0.061-0.06,0.12-0.12,0.181-0.18c-0.545-0.627-1.09-1.254-1.636-1.881C21.798,35.233,21.716,35.311,21.635,35.389z"/>
	<path fill-rule="evenodd" clip-rule="evenodd" fill="#FFFFFF" d="M9.84,30.098c-0.02-0.018-0.036-0.033-0.055-0.05
		c-0.006,0.019-0.01,0.037-0.016,0.056C9.792,30.102,9.818,30.1,9.84,30.098z"/>
	<path fill-rule="evenodd" clip-rule="evenodd" fill="#FFFFFF" d="M59.852,52.693c-0.578-2.218-1.171-4.432-1.764-6.646
		c-0.215-0.8-0.428-1.601-0.643-2.401c-0.174,0.583-0.427,1.106-1.389,0.981c0.322-0.767,0.63-1.5,1.009-2.405
		c-0.537-2.023-1.071-4.048-1.605-6.072c-0.349-1.319-0.696-2.637-1.046-3.956c-0.115-0.104-0.222-0.231-0.27-0.34
		c-0.376-0.86-0.579-1.807-1.03-2.619c-0.4-0.721-0.252-1.301,0.011-1.897c-0.605-2.282-1.209-4.564-1.83-6.841
		c-0.117-0.432-0.293-0.821-0.505-1.176c0.264,0.096,0.527,0.193,0.792,0.29c0.018-0.05,0.035-0.1,0.055-0.15
		c-0.33-0.135-0.659-0.269-0.988-0.404c-0.003,0.008-0.006,0.015-0.008,0.023c-0.774-1.125-2.018-1.788-3.496-1.788l-0.073,0
		c-0.812,0.012-1.622,0.013-2.431,0.015c-0.514,0.975-0.621,2.077-0.131,3.435c0.012,0.033,0.01,0.063,0.02,0.095
		c0.866-0.002,1.731-0.003,2.615-0.017c0.359,0,0.609,0.101,0.745,0.603c0.098,0.36,0.191,0.721,0.289,1.081
		c-0.062,0.035-0.12,0.077-0.183,0.109c-0.367,0.189-0.597,0.052-0.62-0.365c-0.004-0.073-0.008-0.146-0.011-0.208
		c-0.117-0.035-0.23-0.109-0.3-0.08c-0.102,0.042-0.173,0.161-0.257,0.246c0.279,0.269,0.192,0.553,0.043,0.844
		c-0.012,0.025,0.026,0.078,0.066,0.187c0.066-0.176,0.105-0.277,0.171-0.453c0.106,0.164,0.175,0.277,0.249,0.385
		c0.143,0.203,0.425,0.208,0.498-0.008c0.081-0.246,0.217-0.394,0.388-0.487c0.663,2.453,1.318,4.908,1.97,7.364l0.344,1.3
		c0.505,1.904,1.008,3.808,1.51,5.712c0.541,2.049,1.082,4.098,1.625,6.146c0.334,1.255,0.67,2.51,1.006,3.764
		c0.592,2.206,1.184,4.411,1.758,6.619c0.065,0.254,0.031,0.489-0.012,0.541c-1.16,0.457-2.091,0.738-2.93,0.884
		c-2.033,0.355-4.174,0.648-6.361,0.87c-1.445,0.149-2.947,0.217-4.401,0.284l-1.169,0.055c-0.756,0.037-1.512,0.056-2.268,0.077
		c-0.478,0.012-0.955,0.025-1.437,0.042c-0.212,0.007-0.397,0.05-0.554,0.103H22.553c-0.15-0.052-0.33-0.093-0.533-0.102
		c-0.451-0.022-0.901-0.04-1.352-0.058c-0.459-0.019-0.919-0.037-1.379-0.06l-0.906-0.042c-1.063-0.05-2.128-0.1-3.19-0.179
		l-0.385-0.028c-1.429-0.106-2.905-0.216-4.319-0.408c-1.695-0.232-3.506-0.534-5.867-0.977c-0.717-0.134-0.976-0.318-1.092-0.489
		v-0.492c0.016-0.044,0.031-0.09,0.043-0.139l0.383-1.489c0.154-0.601,0.311-1.2,0.467-1.799c-0.164-0.032-0.328-0.065-0.49-0.098
		c0.23-0.687,0.463-1.101,0.854-1.286c0.374-1.403,0.75-2.806,1.126-4.208c0.363-1.35,0.726-2.699,1.086-4.049
		c0.343-1.287,0.683-2.575,1.022-3.862c0.333-1.26,0.665-2.52,1.001-3.78c0.248-0.929,0.498-1.858,0.748-2.787
		c-0.398,0.037-0.905,0.083-1.69,0.155c0.366-0.54,0.547-0.805,0.741-1.09c0.33,0.302,0.633,0.578,0.965,0.88
		c0.063-0.234,0.125-0.467,0.188-0.701c0.625-2.314,1.27-4.707,1.875-7.074c0.371-1.452,0.371-1.452,1.588-1.452l0.23,0.003
		c1.656,0.037,3.314,0.027,4.972,0.018c0.67-0.003,1.341-0.007,2.009-0.008c0.152,0,0.306-0.011,0.469-0.026l2.064-0.149
		c-0.924-1.05-0.937-2.623-1.906-3.655c-0.178-0.188-0.066-0.646-0.089-0.979c0.091-0.023,0.183-0.047,0.272-0.07
		c-0.57-1.387-0.771-2.833-0.582-4.326c-0.115-0.024-0.231-0.049-0.348-0.074c0-0.46,0-0.92,0-1.379
		c0.194,0.088,0.389,0.176,0.583,0.265c0.833-3.284,2.843-5.434,6.152-6.552c0.308-0.104,0.656-0.186,1.026-0.271
		c0.121-0.028,0.244-0.057,0.366-0.087h2.404c0.106,0.036,0.219,0.063,0.335,0.081c2.469,0.345,4.462,1.534,5.923,3.534
		c1.858,2.543,2.308,5.34,1.335,8.313c-0.198,0.606-0.501,1.223-0.821,1.876c-0.165,0.335-0.329,0.67-0.482,1.008l-1.134,2.495
		l2.926,0.004c-0.395-0.351-0.92-0.587-1.641-0.655c0.065-0.599-0.021-1.281,0.247-1.768c0.183-0.333,0.86-0.392,1.429-0.618
		c0.209,0.238,0.449,0.514,0.69,0.787c1.348,1.518,2.636,1.388,3.488-0.335c0.072,0.076,0.139,0.169,0.198,0.283
		c0.128-0.094,0.311-0.159,0.35-0.273c0.051-0.144-0.004-0.332-0.039-0.495c-0.024-0.112-0.093-0.214-0.141-0.32
		c0.019-0.044,0.038-0.087,0.057-0.131c-0.056,0-0.111,0.001-0.167,0.001l-1.885-0.003c0.101-0.246,0.194-0.498,0.279-0.758
		c1.326-4.055,0.69-8.028-1.839-11.491c-1.789-2.448-4.25-4.058-7.143-4.724c-0.008,0.08-0.018,0.16-0.025,0.24
		c-1.422,0.095-2.879,0.472-4.196-0.312c0.01-0.089,0.019-0.178,0.028-0.267h-0.613l-0.214,0.055
		c-0.172,0.043-0.345,0.084-0.519,0.124c-0.327,0.076-0.666,0.163-1.014,0.264c0.039,0.492,0.04,1.213,0.107,1.917
		c-0.784-0.519-1.375-0.91-1.883-1.246c-3.689,1.681-6.127,4.664-7.08,8.712c-0.606,2.568-0.404,5.118,0.574,7.489
		c-1.482,0.007-2.965,0.013-4.448-0.02l-0.308-0.003c-3.312,0-4.344,1.506-5.008,4.108c-0.138,0.539-0.283,1.082-0.424,1.623
		c0.043,0.639,0.133,1.283,0.221,2.107c-0.26,0-0.515,0-0.773,0c-0.295,1.108-0.594,2.213-0.886,3.298
		c-0.319,1.185-0.639,2.369-0.954,3.554c-0.336,1.262-0.67,2.525-1.004,3.788c-0.338,1.285-0.678,2.569-1.021,3.854
		c-0.359,1.348-0.722,2.695-1.083,4.043c-0.102,0.38-0.203,0.759-0.305,1.14c0.183,0.344,0.195,0.938,0.023,1.834
		c-0.104-0.252-0.207-0.504-0.313-0.756c-0.233,0.874-0.469,1.748-0.701,2.621c-0.195,0.733-0.383,1.469-0.571,2.204
		c0.245,0.227,0.476,0.438,0.705,0.649c-0.069,0.077-0.139,0.154-0.208,0.231c-0.24-0.03-0.477-0.066-0.689-0.135l-0.181,0.704
		L0,52.444v2.299l0.093,0.275c0.552,1.632,1.855,2.653,3.876,3.032c2.423,0.455,4.285,0.764,6.043,1.006
		c1.521,0.206,3.053,0.32,4.535,0.431l0.383,0.028c1.094,0.082,2.191,0.134,3.289,0.185l0.896,0.043
		c0.471,0.022,0.941,0.042,1.412,0.061c0.323,0.013,0.646,0.026,0.973,0.04l0.253,0.122H38.1l0.244-0.117
		c0.349-0.011,0.697-0.02,1.045-0.028c0.782-0.021,1.564-0.042,2.348-0.08l1.157-0.055c1.503-0.069,3.056-0.14,4.599-0.299
		c0.224-0.022,0.445-0.049,0.668-0.073c0.406-0.765,1.195-0.317,1.96-0.233c0.242-0.031,0.487-0.06,0.728-0.092
		c0.145-0.068,0.282-0.174,0.41-0.33c-0.359-0.437-0.771-0.938-1.183-1.438c0.052-0.114,0.103-0.226,0.155-0.339
		c0.372,0.191,0.791,0.326,1.107,0.586c0.452,0.373,1.008,0.771,1.191,1.275c0.529-0.083,1.054-0.169,1.571-0.26
		c1.081-0.188,2.23-0.53,3.619-1.079C59.811,56.579,60.29,54.384,59.852,52.693z M43.631,17.656c0.002,0.123,0.004,0.25,0.007,0.358
		c-0.062,0.014-0.114,0.009-0.161-0.004C43.528,17.893,43.579,17.774,43.631,17.656z M41.651,9.969
		C41.2,9.43,40.75,8.892,40.217,8.254C41.58,8.081,41.897,8.41,41.651,9.969z M4.707,57.057c1.061,0,1.969,0,3.07,0
		C6.373,57.861,5.335,57.875,4.707,57.057z M29.575,57.604c-0.007-0.102-0.015-0.203-0.022-0.306
		c0.506-0.011,1.032-0.104,1.501,0.022c0.131,0.035,0.088,0.716,0.149,1.362C30.435,58.173,30.005,57.889,29.575,57.604z
		 M34.676,57.718c-0.77,0.051-1.557,0.255-2.27-0.169c0.014-0.133,0.027-0.266,0.041-0.398c0.758,0.048,1.516,0.097,2.273,0.145
		C34.705,57.437,34.691,57.577,34.676,57.718z"/>

	</symbol>

</svg>



